<svg xmlns="http://www.w3.org/2000/svg" xmlns:xlink="http://www.w3.org/1999/xlink" width="100%" height="100%" viewBox="0 0 88 15">
                <path fill-rule="evenodd" fill="rgb(255, 255, 255)" d="M85.5,0.3h-0.3c-0.1,0-0.1-0.1-0.1-0.1c0-0.1,0.1-0.1,0.1-0.1h1c0.1,0,0.1,0.1,0.1,0.1c0,0.1-0.1,0.1-0.1,0.1
	h-0.3v1.1c0,0.1-0.1,0.1-0.1,0.1s-0.1-0.1-0.1-0.1c0,0,0,0,0,0L85.5,0.3L85.5,0.3z M86.6,0.2c0-0.1,0.1-0.1,0.1-0.1c0,0,0,0,0,0h0
	c0.1,0,0.1,0,0.1,0.1l0.4,0.7l0.4-0.7c0,0,0.1-0.1,0.1-0.1h0C87.9,0,88,0.1,88,0.2v1.2c0,0.1,0,0.1-0.1,0.1s-0.1,0-0.1-0.1
	c0,0,0,0,0,0V0.5l-0.3,0.5c0,0.1-0.1,0.1-0.2,0.1c0,0,0,0-0.1-0.1l-0.3-0.5v0.9c0,0.1,0,0.1-0.1,0.1s-0.1,0-0.1-0.1c0,0,0,0,0,0
	L86.6,0.2L86.6,0.2z"></path>
                <path fill-rule="evenodd" fill="rgb(255, 255, 255)" d="M50.9,9.3h-1.6l0.1,0.2c0.1,0.2,0.1,0.4,0.1,0.7c0.1,1.7-1.3,3.2-3,3.3c-0.1,0-0.2,0-0.4,0h-3.4V9.3H41v4.8
	c0,0.5,0.3,0.8,0.8,0.9h4.1c2.5,0,5.1-1.6,5.1-4.7c0-0.3,0-0.6-0.1-0.9L50.9,9.3z M54.1,13.7L54.1,13.7c-0.2,0.4-0.1,0.9,0.3,1.2
	c0.1,0.1,0.3,0.1,0.4,0.1c0.3,0,0.6-0.2,0.7-0.4l3.1-5.2h-1.9L54.1,13.7z M67.6,9.4h-1.9l2.7,5.1c0.1,0.3,0.4,0.5,0.7,0.5l0,0
	c0.1,0,0.3,0,0.4-0.1c0.4-0.2,0.6-0.7,0.4-1.1L67.6,9.4z M63.1,0.5C63,0.2,62.7,0,62.4,0c-0.3,0-0.6,0.1-0.8,0.4
	c-4,6.6-4.1,6.8-4,6.8l0,0c-0.1,0.2-0.1,0.5,0,0.7c0.1,0.2,0.3,0.3,0.6,0.3l0,0c0,0,0.1,0,0.1,0h4.4c0,0,0.1,0,0.1,0
	c0.4-0.1,0.7-0.4,0.6-0.8C63.3,7,63,6.8,62.6,6.8h-2.8l2.5-4.1l2.9,5.5l0,0.1h1.9L63.1,0.5z M42.6,1.5h3.7c1.4-0.1,2.6,1,2.7,2.4
	c0,0.1,0,0.2,0,0.4c0.1,1.3-0.9,2.4-2.2,2.5c-0.1,0-0.2,0-0.3,0h-2c-0.4,0-0.7,0.4-0.7,0.8c0,0.4,0.3,0.7,0.7,0.7h2.1c0,0,0,0,0.1,0
	h0.7c1.9-0.3,3.3-1.9,3.3-3.9c0-2.6-1.8-4.2-4.6-4.2h-4.3C41.4,0,41,0.4,41,0.8v7.3h1.6L42.6,1.5z M77.8,0h-4.2
	c-0.4,0-0.8,0.4-0.8,0.8v7.3h1.6l0-6.6h3.7c1.4-0.1,2.6,1,2.7,2.4c0,0.1,0,0.2,0,0.4c0.1,1.3-0.9,2.3-2.1,2.4c-0.1,0-0.2,0-0.3,0
	h-2.1c-0.4,0-0.7,0.4-0.7,0.8c0,0.4,0.3,0.7,0.7,0.7h2.2c0,0,0,0,0.1,0h0.7c1.9-0.3,3.3-1.9,3.2-3.9C82.3,1.7,80.6,0,77.8,0L77.8,0z
	 M79.6,9.4h-1.7l2.6,5c0.1,0.3,0.4,0.5,0.7,0.5c0.4,0,0.8-0.4,0.8-0.8c0,0,0,0,0,0c0-0.1,0-0.3-0.1-0.4L79.6,9.4z M72.9,14.1
	c0,0.4,0.3,0.8,0.8,0.8c0,0,0,0,0,0c0.4,0,0.8-0.3,0.8-0.8c0,0,0,0,0-0.1V9.4h-1.6V14.1z M33.1,0.1c0,0-0.1,0-0.1,0h-4.7
	C28.1,0,28,0.2,28,0.4v7.7h0.8V0.8h4.1c0,0,0,0,0,0c1.7,0.2,3,1.6,2.9,3.3c0,1.7-1.3,3.1-2.9,3.2h-2.6c-0.2,0-0.4,0.2-0.4,0.4
	c0,0.2,0.2,0.4,0.4,0.4h2.6c2.1-0.1,3.8-1.9,3.7-4C36.6,2.1,35.1,0.4,33.1,0.1L33.1,0.1z M0.1,14.2c-0.1,0.2-0.1,0.4,0.1,0.6
	c0.1,0,0.1,0.1,0.2,0.1c0.1,0,0.3-0.1,0.3-0.2l3.4-5.3H3.1L0.1,14.2z M13.4,9.3h-0.9l2.8,5.3c0.1,0.1,0.2,0.2,0.3,0.2
	c0.1,0,0.1,0,0.2,0c0.2-0.1,0.3-0.4,0.2-0.5L13.4,9.3z M20.9,9.3l0,5.2c0,0.2,0.2,0.4,0.4,0.4l0,0c0.2,0,0.4-0.2,0.4-0.4l0-5.2
	L20.9,9.3L20.9,9.3z M28,9.3l0,5.1c0,0.2,0.2,0.4,0.4,0.4l0,0c0.2,0,0.4-0.2,0.4-0.4l0-5.1L28,9.3L28,9.3z M33.9,9.3H33c0,0,0,0,0,0
	l2.6,5.2c0.1,0.1,0.2,0.2,0.3,0.2c0.1,0,0.1,0,0.2,0c0.2-0.1,0.3-0.3,0.2-0.5L33.9,9.3z M12,8.1h0.9L8.7,0.3
	C8.7,0.2,8.5,0.1,8.4,0.1c-0.1,0-0.3,0.1-0.3,0.2L3.9,7.6C3.8,7.7,3.8,7.8,3.9,8C3.9,8.1,4,8.2,4.2,8.2H10c0.2,0,0.4-0.2,0.4-0.4
	S10.2,7.4,10,7.4H4.9l3.5-6L12,8.1z M21.7,8.2l0-7.7c0-0.2-0.2-0.4-0.4-0.4l0,0c-0.2,0-0.4,0.2-0.4,0.4l0,7.7L21.7,8.2L21.7,8.2z"></path>
    </svg>